{"title":"Parental.Guidance.2012.DVDRip.XviD-DiN","uid":8272094,"size":733687160,"categoryP":"video","categoryS":"movies","magnet":"?xt=urn:btih:8155afc4272c6209cdc0b95c8b74371faff13618&amp;dn=Parental.Guidance.2012.DVDRip.XviD-DiN&amp;tr=udp%3A%2F%2Ftracker.openbittorrent.com%3A80&amp;tr=udp%3A%2F%2Fopen.demonii.com%3A1337&amp;tr=udp%3A%2F%2Ftracker.coppersurfer.tk%3A6969&amp;tr=udp%3A%2F%2Fexodus.desync.com%3A6969","seeders":2,"leechers":0,"uploader":"sceneline","files":5,"time":1363631995,"description":"-\n\n      the fast  and The Hottest Private Tracker on the net\n\nPlease Seed back to make the speed Faster!!\n ............ NFO .............\n-http://www.imdb.com/title/tt1047540/\n\nGeneral\n\nComplete name                            : Parental.Guidance.2012.DVDRip.XviD-DiN\n\nFormat                                   : AVI\n\nFormat/Info                              : Audio Video Interleave\n\nFile size                                : 700 MiB\n\nDuration                                 : 1h 44mn\n\nOverall bit rate                         : 935 Kbps\n\n\n\nVideo\n\nID                                       : 0\n\nFormat                                   : MPEG-4 Visual\n\nFormat profile                           : Advanced Simple@L5\n\nFormat settings, BVOP                    : 1\n\nFormat settings, QPel                    : No\n\nFormat settings, GMC                     : No warppoints\n\nFormat settings, Matrix                  : Default (H.263)\n\nMuxing mode                              : Packed bitstream\n\nCodec ID                                 : XVID\n\nCodec ID/Hint                            : XviD\n\nDuration                                 : 1h 44mn\n\nBit rate                                 : 801 Kbps\n\nWidth                                    : 624 pixels\n\nHeight                                   : 336 pixels\n\nDisplay aspect ratio                     : 1.85:1\n\nFrame rate                               : 23.976 fps\n\nColor space                              : YUV\n\nChroma subsampling                       : 4:2:0\n\nBit depth                                : 8 bits\n\nScan type                                : Progressive\n\nCompression mode                         : Lossy\n\nBits/(Pixel*Frame)                       : 0.159\n\nStream size                              : 599 MiB (86%)\n\nWriting library                          : XviD 1.2.1 (UTC 2008-12-04)\n\n\n\nAudio\n\nID                                       : 1\n\nFormat                                   : MPEG Audio\n\nFormat version                           : Version 1\n\nFormat profile                           : Layer 3\n\nMode                                     : Joint stereo\n\nMode extension                           : MS Stereo\n\nCodec ID                                 : 55\n\nCodec ID/Hint                            : MP3\n\nDuration                                 : 1h 44mn\n\nBit rate mode                            : Constant\n\nBit rate                                 : 128 Kbps\n\nChannel(s)                               : 2 channels\n\nSampling rate                            : 48.0 KHz\n\nCompression mode                         : Lossy\n\nStream size                              : 95.8 MiB (14%)\n\nAlignment                                : Aligned on interleaves\n\nInterleave, duration                     : 167 ms (4.00 video frames)\n\nInterleave, preload duration             : 216 ms\n\nTitle                                    : DVDR-AN0NYM0US\n\nWriting library                          : LAME3.99r\n\nEncoding settings                        : -m j -V 4 -q 2 -lowpass 17 -b 128","torrent":{"xt":"urn:btih:8155afc4272c6209cdc0b95c8b74371faff13618","amp;dn":"Parental.Guidance.2012.DVDRip.XviD-DiN","amp;tr":["udp%3A%2F%2Ftracker.openbittorrent.com%3A80","udp%3A%2F%2Fopen.demonii.com%3A1337","udp%3A%2F%2Ftracker.coppersurfer.tk%3A6969","udp%3A%2F%2Fexodus.desync.com%3A6969"],"infoHash":"8155afc4272c6209cdc0b95c8b74371faff13618","infoHashBuffer":{"type":"Buffer","data":[129,85,175,196,39,44,98,9,205,192,185,92,139,116,55,31,175,241,54,24]},"announce":[],"urlList":[]}}